<svg width="2574" height="2495" viewBox="0 0 2574 2495" fill="none" xmlns="http://www.w3.org/2000/svg">
<g id="Group 1">
<path id="Outer" d="M1166 310.003L490.749 701.57L461 720.5L436.5 754L417 805.5L413.5 850.002L413.5 1630L417 1687L427 1721.5L446 1754.5L466.5 1778L494.5 1797.5L1160 2183L1227.5 2217.5L1263.5 2228L1296.5 2228L1332.5 2220.5L1370.5 2205L2075 1800.5L2106.5 1777.5L2129 1751.5L2147 1718L2157.5 1679L2157.5 1638.5L2157.5 821.003L2150 787.503L2136.5 755.503L2115 725.003L2081 698.503L1369.5 289.003L1329.5 271.003L1285 266.003L1250 271.003L1214.5 281.504L1166 310.003Z" stroke="white" stroke-width="3"/>
<path id="C" d="M707.586 1192.72L717 1132L738 1047L770 977.998L814.5 902.498L880.5 831.498L944 777.498L1022.5 729.498L1101.5 695.998L1194.5 673.499L1289 666.498L1377.5 673.498L1447 688.998L1527.5 719.498L1594.5 756.998L1656.5 800.998L1713.5 857.998L1754.5 906.498L1785 956.498L1534.5 1103L1488.5 1044L1454 1014.5L1407 983.998L1354 964.998L1304.5 958.498L1259 958.498L1233 963.498L1197 971.998L1157 986.998L1126.5 1005.5L1092 1031L1061 1063.5L1040.5 1093L1018.5 1134.5L1005 1172.5L997.5 1223.5L997.5 1270.5L1007.5 1327L1030.5 1383.5L1058 1425L1096 1465.5L1130.5 1490L1164.5 1510L1212 1525.5L1239 1532L1286.5 1536L1332.5 1532L1379 1521L1424.5 1500L1460 1476.5L1492.5 1448L1517 1418.5L1537.5 1387.5L1789 1534L1773.5 1558.5L1755.5 1587L1735.5 1612L1714.5 1636L1695.5 1657L1669.5 1682.5L1642 1704L1610.5 1728L1579 1747.5L1551 1762.5L1514 1780L1473.5 1795.5L1431 1808L1379 1818.5L1327.75 1825.25L1286.5 1827.5L1224 1825.25L1178 1818.5L1126 1804.5L1062 1780L1029 1766L994 1747.5L957.5 1723.5L935.5 1709.5L913 1691.5L886 1666L859.5 1638.5L842.5 1620.39L822 1595L802.5 1567.5L785 1538L768 1510L753 1478L741 1446L729 1411L717.5 1375L711.5 1333.5L704.5 1279L704.5 1240L708.009 1190" stroke="white" stroke-width="3"/>
<path id="#out" d="M1926.5 1156.59L1857.71 1156.59L1857.71 1110L1797.5 1110L1797.5 1156.59L1753.5 1156.59L1753.5 1214.5L1797.5 1214.5L1797.5 1283.5L1753.5 1283.5L1753.5 1339L1797.5 1342L1797.5 1388L1854 1388L1857.71 1342L1924.5 1342L1926.5 1388L1984 1388L1984 1339L2029 1339L2029 1283.5L1984 1283.5L1984 1214.5L2029 1214.5L2029 1156.59L1984 1156.59L1984 1110L1926.5 1110L1926.5 1156.59Z" stroke="white" stroke-width="3"/>
<path id="#In" d="M1925.5 1213.5L1855.99 1213.5L1855.99 1283L1925.5 1283L1925.5 1213.5Z" stroke="white" stroke-width="3"/>
</g>
</svg>
