<svg width="161" height="237" viewBox="0 0 161 237" fill="none" xmlns="http://www.w3.org/2000/svg">
<g id="Group 1">
<path id="Line 1" d="M101.002 1.50402L104.002 6.0041L105.501 16.5041L104.001 23.0041L102.001 28.5042L99.5014 33.0042L97.0014 37.0042L92.5014 42.5042L87.0014 48.0042L82.5014 52.5042L78.0014 56.0042L72.5014 60.5042L67.5014 65.5042L65.0014 69.0042L63.0014 73.5042L62.5014 78.5042L63.0014 84.0042L65.0014 90.0041L68.0014 96.0041L78.0014 112.504L63.0014 98.0041L58.5014 92.5041L54.5014 86.0042L52.5014 80.5042L52.0014 75.0042L52.5014 70.0042L54.5014 65.5042L58.5014 60.5042L63.5014 55.5042L69.0014 51.5042L74.5014 46.5041L80.0014 42.5041L85.5014 38.0041L89.5014 34.5042L93.0014 30.5041L96.5014 26.0041L99.0014 21.5041L100.432 18.0041L101.001 14.0041L101.501 9.00413L101.002 1.50402ZM101.002 1.50402L101 1.50052" stroke="white" stroke-width="3"/>
<path id="Line 2" d="M119 43.9981L125.137 42.4786L117 47L113 50L107.5 53.498L103 56.998L98.0002 61L94.5004 65L92.0003 69.5L91.0003 75.0002L92.0003 80.0002L96.5004 85.5002L100.5 91.0002L103 98.0002L102 104.5L99.0004 110.5L94.5004 115L88.0004 119.5L92.0003 112L93.0004 107.001L91.0003 102.5L89.0004 99.0004L85.0004 94.0003L82.0005 89.4989L80.0004 83.9986L79.5005 78.4987L80.0004 72.998L82.5004 67.998L85.0004 63.998L89.0004 59.998L91.5 57.5L97.5004 53.498L102 50.9988L107.5 48.4989L113 45.9987L119 43.9981Z" stroke="white" stroke-width="3"/>
<path id="Line 3" d="M131 113L128.842 114.525L135 114.525L139.5 115.5L144.5 119L147 123.5L147.5 129L145.5 133L142.5 137.5L137.5 143L131.5 147L123.5 151.5L131 149.5L135.5 147.5L141 144.5L147 141L151 136.5L153 133.5L154.5 130.5L155 125.5L154.5 122.5L153.5 120L151.5 117.5L150 116L148 114.525L145.5 113L139.5 112L134.5 112L131 113Z" stroke="white" stroke-width="3"/>
<path id="Line 4" d="M46 116L53.1299 114L44 115L36.5 116.509L28.5 119L22.4999 122L18.9999 124.5L20.4999 127.005L28.9999 129.5L37.4998 131.001L47.9998 132.001L56.4998 132.001L66.4998 132.001L75.9998 131.501L84.9998 131.001L91.4998 130.501L99.9998 129.501L114 126.002L121 121.5L112.5 123.002L103 124.501L92.4998 125.502L82.0001 126.002L73.4999 126.504L60.9998 127.005L48.9999 126.505L42.4999 126.007L36.9999 125.007L33.4998 123.007L35 120.508L40 118.199L46 116Z" stroke="white" stroke-width="3"/>
<path id="Line 5" d="M109.998 145.498L106.498 142.998L100.498 145.001L92.4985 146L84.4985 147L59.5 146.501L51 146L45 144.5L43.5 142L45 138L39.4999 141.5L35.4998 145.001L36.4996 146.501L40.4996 149.501L47.4984 151.998L54.4984 152.998L64.4984 153.498L76.4984 153.498L84.4985 152.998L92.4985 152.498L100.498 151.498L107.499 149.998L113.498 147.498L109.998 145.498Z" stroke="white" stroke-width="3"/>
<path id="Line 6" d="M104.499 167.501L100 163.568L95.4999 165.5L89.9999 167L84.4999 167.501L62.9999 167.501L56.4999 167L50.4999 165.5L48.9999 163.569L49.9999 161L47.9999 161.5L43.4999 164L41.9999 168L45.4998 170.5L50.9998 173.501L57.4998 175.502L65.9999 176.5L87.4998 176.088L92.499 175.501L101.999 173.501L109.999 170.001L104.499 167.501Z" stroke="white" stroke-width="3"/>
<path id="Line 7" d="M22.0005 178.503L33.1794 175.537L26.5 175.537L21 176.5L14.0005 178.503L7.49998 181.5L1.99998 185.5L1.99998 189L8.99998 192L21 194L35.5001 195.502L53.0001 197.002L68.0001 197.002L85.5001 196.502L103.5 195.502L118 193.002L128 191.502L136.5 188.503L141 186.503L144.5 184.003L145.5 182.002L145 180.003L142.5 177.503L142.5 182.002L138 184.502L128.5 188.002L113.5 190.003L98.0004 191.502L78.5004 191.502L56.5005 191.502L38.0006 190.002L22.0005 188.002L14.0005 184.502L15.0005 182.002L22.0005 178.503Z" stroke="white" stroke-width="3"/>
<path id="Line 8" d="M45.5 202.5L32.5002 200.998L36.5 202.998L42 205.5L50.5 207L60.5 208L75 208.5L88 208.5L100.5 208L111 207L121 205L129.5 203L137.5 200.998L145 198L149.5 195L154 188.499L143.5 194.499L132 198L119.5 201L100 203L82.0002 203.498L68.5002 203.498L54.0002 203.498L45.5 202.5Z" stroke="white" stroke-width="3"/>
</g>
</svg>
