<svg width="762" height="754" viewBox="0 0 762 754" fill="none" xmlns="http://www.w3.org/2000/svg">
<rect width="762" height="754" fill="#1E1E1E"/>
<path id="Bottom Hole" d="M313.5 97C313.5 117.693 296.505 134.5 275.5 134.5C254.495 134.5 237.5 117.693 237.5 97C237.5 76.3073 254.495 59.5 275.5 59.5C296.505 59.5 313.5 76.3073 313.5 97Z" stroke="white" stroke-width="3"/>
<path id="Top Hole" d="M517.5 663C517.5 683.693 500.505 700.5 479.5 700.5C458.495 700.5 441.5 683.693 441.5 663C441.5 642.307 458.495 625.5 479.5 625.5C500.505 625.5 517.5 642.307 517.5 663Z" stroke="white" stroke-width="3"/>
<path id="Top" d="M52 539.5L78 556L101 563.999L126 563.999L173 563.999L173 456.5L182 427L194.5 407.5L210 392L235.5 375.5L264.5 367.003L312 367.003L374.5 367.003L465.5 367.003L493 363.5L515.5 352.5L534 340L547 323.5L556 306.5L560 285L560 89.4997L556 67.5L540.5 50.9997L521 35L504.5 25L483 15L459.5 7.68748L432.5 3.99973L409.5 2.00004L383.5 2.00005L362 2.00003L338 2.00002L307.5 3.99975L289.5 6.50001L275.5 9.49975L254 15L236.5 23L223.5 31.5L211 42.5L199 59L194.5 77.4997L194.5 173L375 173L375 204.002L111.5 204.002L85 207L63 216.5L49 228.5L36.5 245L23.5 264.5L14.0041 288.003L4.99998 325L2.00006 367.003L2.00006 406.5L4.99998 441.5L10 467.5L20 494.5L32.5 518L52 539.5Z" stroke="#F8F8F8" stroke-width="3.01227"/>
<path id="Bottom" d="M711.545 216.456L685.677 199.751L662.741 191.57L637.741 191.372L590.743 191L589.892 298.496L580.659 327.924L568.005 347.324L552.383 362.701L526.753 378.999L497.687 387.266L450.188 386.89L387.69 386.395L296.693 385.675L269.166 388.961L246.58 399.782L227.982 412.136L214.851 428.532L205.717 445.46L201.547 466.928L200 662.422L203.826 684.453L219.195 701.075L238.567 717.229L254.988 727.359L276.408 737.529L299.849 745.027L326.819 748.928L349.803 751.11L375.802 751.316L397.301 751.486L421.301 751.676L451.815 749.918L469.835 747.56L483.858 744.671L505.401 739.341L522.964 731.48L536.03 723.083L548.617 712.182L560.747 695.778L565.394 677.314L566.149 581.817L385.655 580.389L385.9 549.387L649.392 551.472L675.915 548.685L697.989 539.359L712.084 527.47L724.714 511.07L737.868 491.673L747.55 468.246L756.846 431.322L760.179 389.343L760.491 349.848L757.768 314.825L752.974 288.786L743.188 261.708L730.874 238.11L711.545 216.456Z" stroke="#F8F8F8" stroke-width="3.01227"/>
</svg>
