<svg width="1452" height="1311" viewBox="0 0 1452 1311" fill="none" xmlns="http://www.w3.org/2000/svg">
<g id="Group 4">
<g id="Group 1">
<path id="Line 1" d="M456.854 162.526L478.502 156.503L507.502 156.503L543.502 159.503L588.501 177.003L622.001 196.003L665.501 226.003L707.501 263.003L768.001 323.003L807.001 369.003L839.501 411.503L893.501 487.503L936.501 562.003L987.001 661.003L1022 743.503L1039 798.003L1053.5 850.503L1063.5 897.503L1071 945.003L1074 980.003L1071 1016L1067 1051L1059.5 1079L1045.5 1106L1031.5 1123.5L1015.5 1137.5L994.001 1148L971.001 1156L938.001 1156L901.002 1151.5L869.002 1137.5L825.002 1114L787.502 1086.5L740.002 1047.5L691.501 996.503L663.001 966.503L630.001 928.003L595.501 881.003L557.501 824.003L532.501 777.503L496.001 713.503L456.001 633.004L429.001 558.504L412.501 513.504L395.001 445.504L381.501 374.004L378.501 332.003L381.501 282.503L392.001 233.003L414.001 196.003L433.501 173.503L456.853 162.523" stroke="white" stroke-width="3"/>
<path id="Line 2" d="M478.162 210.989L494.546 205.806L517.122 206.097L545.381 209.148L581.773 225.289L609.329 242.66L645.525 269.994L681.097 303.59L732.859 357.992L766.795 399.626L795.399 438.058L843.344 506.74L882.61 573.968L929.618 663.237L963.277 737.557L980.747 786.592L996.116 833.809L1007.55 876.049L1017.08 918.713L1022.14 950.124L1022.6 982.372L1022.21 1013.71L1018.55 1038.74L1009.75 1062.81L1000.21 1078.36L988.841 1090.75L972.919 1099.95L955.636 1106.89L929.946 1106.56L900.792 1102.16L874.793 1089.28L838.713 1067.77L807.382 1042.74L767.373 1007.3L725.652 961.083L701.133 933.9L672.451 899.05L641.94 856.564L607.927 805.078L584.851 763.135L551.462 705.387L514.066 632.81L487.256 565.743L470.914 525.231L452.005 464.086L435.938 399.844L430.338 362.157L428.826 317.805L433.153 273.529L447.404 240.575L460.835 220.598L478.161 210.987" stroke="white" stroke-width="3"/>
</g>
<g id="Group 2">
<path id="Line 1_2" d="M1017.56 175.774L1033.62 191.484L1048.16 216.576L1063.62 249.228L1071.04 296.937L1071.39 335.449L1067.25 388.127L1056.29 443.018L1034.71 525.447L1014.46 582.254L993.986 631.682L955.303 716.509L912.403 791.067L852.065 884.397L798.231 956.044L759.6 998.078L721.445 1036.95L685.793 1069.16L648.455 1099.47L619.676 1119.61L587.024 1135.07L554.735 1149.15L526.749 1156.7L496.368 1158.13L474.207 1154.79L454.072 1147.96L434.208 1134.62L415.754 1118.73L399.209 1090.18L384.552 1055.91L380.621 1021.21L378.893 971.354L383.886 925.12L393.815 864.467L413.624 796.933L425.291 757.233L442.057 709.378L465.425 655.963L495.691 594.506L523.389 549.561L560.464 485.892L610.06 410.922L660.982 350.208L691.645 313.37L741.706 264.135L796.801 216.606L831.637 192.952L875.97 170.73L924.063 154.996L967.107 155.481L996.352 161.072L1017.56 175.771" stroke="white" stroke-width="3"/>
<path id="Line 2_2" d="M986.31 218.508L999.009 230.086L1010.08 249.765L1021.61 275.745L1025.89 315.325L1024.67 347.877L1019.17 392.899L1007.94 440.521L986.818 512.583L967.809 562.82L948.899 606.838L913.511 682.757L875.031 750.437L821.361 835.867L773.933 902.253L740.266 941.954L707.118 978.924L676.305 1010L644.17 1039.64L619.527 1059.76L591.857 1076.33L564.543 1091.7L541.05 1101.08L515.814 1105.53L497.577 1105.08L481.156 1101.45L465.214 1092.29L450.542 1080.82L437.948 1058.42L427.143 1030.99L425.246 1002.04L425.768 960.038L431.719 920.379L442.326 867.991L461.392 808.723L472.619 773.88L488.391 731.59L509.854 683.89L537.349 628.647L562.068 587.652L595.293 529.809L639.339 461.064L683.926 404.242L710.785 369.79L754.208 322.773L801.737 276.662L831.537 252.921L869.153 229.376L909.632 210.921L945.289 206.729L969.309 208.334L986.312 218.506" stroke="white" stroke-width="3"/>
</g>
<g id="Group 3">
<path id="Line 1_3" d="M1287.26 665.205L1281.82 687.004L1267.5 712.225L1247.12 742.053L1209.69 772.55L1176.63 792.306L1129.07 815.329L1076.16 833.592L994.115 856.591L934.859 867.803L881.855 875.089L789.104 884.538L703.088 885.16L592.062 880.212L503.037 869.928L447.247 857.811L394.432 844.507L348.62 830.004L303.608 813.08L271.689 798.413L241.861 778.034L213.396 757.279L192.747 736.935L176.176 711.432L167.868 690.618L163.59 669.793L165.07 645.912L169.466 621.96L185.755 593.261L207.933 563.304L235.903 542.385L278.06 515.719L320.487 496.68L377.851 474.621L446.145 457.615L486.303 447.636L536.075 437.941L593.979 431.136L662.308 426.224L715.089 427.435L788.765 427.282L878.519 432.231L956.638 445.523L1003.92 453.386L1071.7 471.732L1140.54 495.284L1178.55 513.407L1220.12 540.449L1257.98 574.015L1279.3 611.411L1289.25 639.476L1287.27 665.205" stroke="white" stroke-width="3"/>
<path id="Line 2_3" d="M1234.6 659.814L1231.02 676.621L1219.62 696.112L1203.02 719.182L1171.02 742.864L1142.31 758.254L1100.67 776.241L1053.9 790.594L981.033 808.757L928.073 817.72L880.531 823.626L797.132 831.421L719.284 832.386L618.444 829.204L537.194 821.792L485.926 812.781L437.276 802.84L394.895 791.937L353.086 779.167L323.273 768.059L295 752.544L267.937 736.731L247.977 721.191L231.39 701.658L222.575 685.686L217.408 669.683L217.267 651.296L219.761 632.839L232.73 610.66L250.952 587.48L274.981 571.223L311.498 550.463L348.734 535.571L399.308 518.271L460.092 504.798L495.835 496.893L540.301 489.15L592.311 483.587L653.877 479.421L701.744 480.055L768.448 479.522L850.026 482.824L921.587 492.613L964.887 498.397L1027.4 512.134L1091.2 529.871L1126.74 543.604L1166.06 564.182L1202.43 589.8L1224.05 618.46L1234.8 640.002L1234.6 659.814" stroke="white" stroke-width="3"/>
</g>
<path id="Ellipse 1" d="M725.5 754.5C781.245 754.5 826.5 710.436 826.5 656C826.5 601.564 781.245 557.5 725.5 557.5C669.755 557.5 624.5 601.564 624.5 656C624.5 710.436 669.755 754.5 725.5 754.5Z" stroke="white" stroke-width="3"/>
</g>
</svg>
