<svg width="214" height="214" viewBox="0 0 214 214" fill="none" xmlns="http://www.w3.org/2000/svg">
<path d="M106 77.5C118.738 77.5 130.289 75.9293 138.672 73.3778C142.861 72.103 146.287 70.575 148.677 68.8553C151.055 67.1441 152.5 65.1721 152.5 63C152.5 60.8279 151.055 58.8559 148.677 57.1447C146.287 55.425 142.861 53.897 138.672 52.6222C130.289 50.0707 118.738 48.5 106 48.5C93.2623 48.5 81.7109 50.0707 73.3275 52.6222C69.1389 53.897 65.7128 55.425 63.3229 57.1447C60.9447 58.8559 59.5 60.8279 59.5 63C59.5 65.1721 60.9447 67.1441 63.3229 68.8553C65.7128 70.575 69.1389 72.103 73.3275 73.3778C81.7109 75.9293 93.2623 77.5 106 77.5Z" stroke="white"/>
<path d="M150.5 77.9998L138.5 84.9995L131.5 87L124 88.5L115.5 89.5L104.5 89.5L96.5 89.5L88 89L81 87.5L74.5 84.9995L67.5 81.5L61 77.9998L61 94.9995L67.5 98.5L76 102L84.5 104L92.5 105.5L99.5 106L107.5 106L118 106L127 104.5L134.5 102.5L141 99.5L150.5 94.9995L150.5 77.9998Z" stroke="white"/>
<path d="M150.836 104.035L138.836 111.035L131.836 113.035L124.336 114.535L115.836 115.535L104.836 115.535L96.8362 115.535L88.3362 115.035L81.3362 113.535L74.8362 111.035L67.8362 107.535L61.3363 104.035L61.3363 121.035L67.8362 124.535L76.3362 128.035L84.8362 130.035L92.8362 131.535L99.8363 132.035L107.836 132.035L118.336 132.035L127.336 130.535L134.836 128.535L141.336 125.535L150.836 121.035L150.836 104.035Z" stroke="white"/>
<path d="M150.836 131.035L138.836 138.035L131.836 140.035L124.336 141.535L115.836 142.535L104.836 142.535L96.8362 142.535L88.3362 142.035L81.3362 140.535L74.8362 138.035L67.8362 134.535L61.3363 131.035L61.3363 148.035L67.8362 151.535L76.3362 155.035L84.8362 157.035L92.8362 158.535L99.8363 159.035L107.836 159.035L118.336 159.035L127.336 157.535L134.836 155.535L141.336 152.535L150.836 148.035L150.836 131.035Z" stroke="white"/>
<path d="M161 58L160 55.4589L156.5 51.5L151 47L145 43.5L138.5 41L129 38.5L120 37.5001L111.5 37L102.5 37L93.5 37.5001L86 38.5L78 40.5001L71 43L64.5 46L59 49.0001L54 52.5L49.6464 56.6466L49.6465 78.5L50.4999 153.5L54 159L58 163L63.5 167.5L71 172L79 175L86.5 176.5L93.5 177.5L102.5 177.5H113L124 177.5L132.5 176.5L139 175L146 172L151.5 169L157.5 164.5L160.5 161L162 157L161 58Z" stroke="white"/>
</svg>
