<svg width="259" height="120" viewBox="0 0 259 120" fill="none" xmlns="http://www.w3.org/2000/svg">
<g id="Group 1">
<path id="Line 1" d="M60 17.5004L66.5 26.0002L17.4999 56.5003L65.4999 88.0003L59.4999 96.5004L5.99993 63.0003L5.99996 51.0005L59.5 17.4999" stroke="black"/>
<path id="Line 2" d="M199.494 94.9057L192.85 86.5181L241.322 55.1856L192.791 24.5099L198.645 15.9087L252.709 48.4901L252.914 60.4882L199.994 94.8977" stroke="black"/>
<path id="Line 3" d="M78.6575 68.6371L104.5 49.0014L105.5 54.0014L109 57.5014L115 57.5014L126 49.0014L127 52.5014L124 56.0014L118 61.0014L78.6576 92.0007L78.6575 68.6371ZM78.6575 68.6371L78.6574 68.6361" stroke="black"/>
<path id="Line 4" d="M78.9999 91.4996L124.503 56.205L125.503 61.2049L129.003 64.705L135 63.2049L147.003 54L147.5 60.5L144.5 63.2049L138.5 68L100.5 100.999L79 101L78.9999 91.4996ZM78.9999 91.4996L98.6599 75.8396" stroke="black"/>
<path id="Line 5" d="M101 100.363L138.437 100.363L145.946 93.4591L153.732 83.9385L154.752 80.1192L155.165 77.736L154.752 72.5L149 77L144 81L138.742 83.0034L134 79L132 73.5" stroke="black"/>
<path id="Line 6" d="M104.662 48.6313L117.5 37.0005L123.5 33.0005L129.5 31.4999L131.5 33.4998L131.5 37.9998L129.5 42.4998L126.5 47.4998L123.5 50.4998L115.5 57" stroke="black"/>
<path id="Line 7" d="M125 54.2773L137.838 42.6465L143.838 38.6465L149.838 37.1459L151.838 39.1458L151.838 43.6458L149.838 48.1458L146.838 53.1458L143.838 56.1458L135.838 62.646" stroke="black"/>
<path id="Line 8" d="M144.838 62.6464L150.838 58.6464L153.5 57.9999M152 74.2773L154.5 72L156.838 68.1458L158.838 63.6458L158.838 61.5" stroke="black"/>
<path id="Line 9" d="M179.5 0.5H161L158 12L159.5 14.5L164.5 17.5L171 19.5H179.5V0.5Z" stroke="black"/>
<path id="Line 10" d="M172.479 20.1431L168 34L164 47.5005L159.257 46.2065L161.5 33L164.824 17.9999" stroke="black"/>
<path id="Line 11" d="M155.5 50.4999L159.384 46.3197L164 47.5002L163.5 54.5005L160.5 59.0003L157 62.9999L152.616 65.0005L148 65.0001L149.5 64L152.616 60L154 56L155.5 50.4999Z" stroke="black"/>
</g>
</svg>
